<svg width="23" height="24" viewBox="0 0 23 24" fill="none" xmlns="http://www.w3.org/2000/svg">
<path d="M19.7788 10.3608L18.5435 11.4614C18.5435 11.4614 18.3458 11.6231 18.3458 12.0004C18.3458 16.4432 14.6982 20.0504 10.2419 19.9875C6.00128 19.9246 2.43448 16.3579 2.37159 12.1172C2.3087 7.66098 5.91593 4.01332 10.3587 4.01332C11.9489 4.01332 13.4269 4.485 14.6757 5.2891C14.8464 5.40141 15.071 5.38793 15.2237 5.25316L16.2794 4.3143C16.4995 4.12113 16.486 3.76625 16.248 3.60004C14.3657 2.27484 12.0208 1.56508 9.50069 1.77172C4.64464 2.16254 0.637608 6.07523 0.143467 10.9268C-0.525869 17.5213 5.05343 23.0108 11.6794 22.1887C15.4124 21.7215 18.6198 19.1161 19.954 15.5987C20.6099 13.8737 20.7446 12.2116 20.538 10.6573C20.4886 10.2889 20.0573 10.1137 19.7788 10.3608Z" fill="#37B995"/>
<path d="M22.6228 3.2547C22.205 2.78302 21.4817 2.74259 21.0101 3.16036L11.7202 11.417L10.1659 9.08556C9.81554 8.55997 9.10577 8.41622 8.58468 8.7711C8.05909 9.12149 7.91983 9.83126 8.27022 10.3524L10.5523 13.7754C10.7364 14.0494 11.0284 14.2336 11.3564 14.274C11.4058 14.2785 11.9314 14.3234 12.2593 13.9955L22.5284 4.86739C23.0001 4.44962 23.0405 3.72638 22.6228 3.2547Z" fill="#37B995"/>
</svg>
