<svg width="122" height="23" viewBox="0 0 122 23" fill="none" xmlns="http://www.w3.org/2000/svg">
<path d="M11 0.539154L13.4697 8.13997H21.4616L14.996 12.8375L17.4656 20.4383L11 15.7408L4.53436 20.4383L7.00402 12.8375L0.538379 8.13997H8.53035L11 0.539154Z" fill="white"/>
<path d="M36 0.539154L38.4697 8.13997H46.4616L39.996 12.8375L42.4656 20.4383L36 15.7408L29.5344 20.4383L32.004 12.8375L25.5384 8.13997H33.5303L36 0.539154Z" fill="white"/>
<path d="M61 0.539154L63.4697 8.13997H71.4616L64.996 12.8375L67.4656 20.4383L61 15.7408L54.5344 20.4383L57.004 12.8375L50.5384 8.13997H58.5303L61 0.539154Z" fill="white"/>
<path d="M86 0.539154L88.4697 8.13997H96.4616L89.996 12.8375L92.4656 20.4383L86 15.7408L79.5344 20.4383L82.004 12.8375L75.5384 8.13997H83.5303L86 0.539154Z" fill="white"/>
<path d="M111 0.539154L113.47 8.13997H121.462L114.996 12.8375L117.466 20.4383L111 15.7408L104.534 20.4383L107.004 12.8375L100.538 8.13997H108.53L111 0.539154Z" fill="white"/>
</svg>
