<svg width="77" height="77" viewBox="0 0 77 77" fill="none" xmlns="http://www.w3.org/2000/svg">
<g clip-path="url(#clip0_6015_648)">
<path d="M76.1722 37.9742C76.1722 17.1683 59.3057 0.30188 38.4999 0.30188C17.6941 0.30188 0.827637 17.1683 0.827637 37.9742V38.8021C0.827637 59.6079 17.6941 76.4744 38.4999 76.4744C59.3057 76.4744 76.1722 59.6079 76.1722 38.8021V37.9742Z" fill="white" fill-opacity="0.06"/>
<g clip-path="url(#clip1_6015_648)">
<path d="M31.3655 51.471H45.6341C46.7085 51.471 47.5796 50.5999 47.5796 49.5251V37.8508C47.5796 36.7763 46.7085 35.9052 45.6341 35.9052V32.5506C45.6341 28.6106 42.4398 25.4166 38.4998 25.4166C34.5597 25.4166 31.3655 28.6106 31.3655 32.5506V35.9052C30.291 35.9052 29.4199 36.7763 29.4199 37.8508V49.5251C29.4199 50.5999 30.291 51.471 31.3655 51.471ZM32.6626 32.5506C32.6626 29.327 35.2761 26.7137 38.4998 26.7137C41.7234 26.7137 44.337 29.327 44.337 32.5506V35.9052H43.0398V32.5506C43.0398 30.0434 41.007 28.0109 38.4998 28.0109C35.9925 28.0109 33.9597 30.0434 33.9597 32.5506V35.9052H32.6626V32.5506ZM41.7427 35.9052H35.2568V32.5506C35.2568 30.7598 36.7089 29.308 38.4998 29.308C40.2906 29.308 41.7427 30.7598 41.7427 32.5506V35.9052ZM31.3655 37.2023H45.6341C45.9921 37.2023 46.2825 37.4927 46.2825 37.8508V39.7966H43.6883C43.3302 39.7966 43.0398 40.0869 43.0398 40.4453C43.0398 40.8034 43.3302 41.0937 43.6883 41.0937H46.2825V43.0395H43.6883C43.3302 43.0395 43.0398 43.3299 43.0398 43.688C43.0398 44.0463 43.3302 44.3367 43.6883 44.3367H46.2825V46.9309H43.6883C43.3302 46.9309 43.0398 47.2213 43.0398 47.5793C43.0398 47.9377 43.3302 48.228 43.6883 48.228H46.2825V49.5251C46.2825 49.8835 45.9921 50.1739 45.6341 50.1739H31.3655C31.0074 50.1739 30.717 49.8835 30.717 49.5251V48.228H33.3113C33.6693 48.228 33.9597 47.9377 33.9597 47.5793C33.9597 47.2213 33.6693 46.9309 33.3113 46.9309H30.717V44.3367H33.3113C33.6693 44.3367 33.9597 44.0463 33.9597 43.688C33.9597 43.3299 33.6693 43.0395 33.3113 43.0395H30.717V41.0937H33.3113C33.6693 41.0937 33.9597 40.8034 33.9597 40.4453C33.9597 40.0869 33.6693 39.7966 33.3113 39.7966H30.717V37.8508C30.717 37.4927 31.0074 37.2023 31.3655 37.2023Z" fill="white"/>
<path d="M36.5539 44.931V46.9368C36.5568 47.6494 37.1337 48.2259 37.846 48.2289H39.1535C39.8657 48.2259 40.4426 47.6494 40.4455 46.9368V44.9212C40.4544 44.7487 40.5254 44.5852 40.6451 44.4608C41.1017 43.9584 41.3585 43.3064 41.3671 42.6277C41.3662 41.7807 40.9832 40.9791 40.3247 40.4462C39.6442 39.8949 38.7518 39.6793 37.8946 39.8592C36.7721 40.0929 35.8998 40.9776 35.6816 42.1031C35.5293 42.9517 35.7778 43.823 36.355 44.4634C36.4752 44.5902 36.5459 44.7562 36.5539 44.931ZM36.9568 42.3407C37.0803 41.7353 37.5502 41.2606 38.1541 41.1302C38.269 41.1068 38.3863 41.0949 38.5036 41.0946C38.8687 41.0931 39.2226 41.219 39.505 41.4506C39.8618 41.7386 40.0694 42.172 40.07 42.6304C40.0608 42.992 39.92 43.3379 39.6742 43.6033C39.3441 43.9638 39.157 44.4326 39.1484 44.9212L39.1535 46.9318L37.851 46.9368V44.931C37.8436 44.4403 37.658 43.9694 37.3285 43.606C37.0147 43.2649 36.8772 42.7973 36.9568 42.3407Z" fill="white"/>
<path d="M50.1746 30.0691V26.1778C50.1746 25.8194 49.8842 25.5291 49.5259 25.5291C49.1678 25.5291 48.8774 25.8194 48.8774 26.1778V30.0691C48.8774 30.4275 49.1678 30.7178 49.5259 30.7178C49.8842 30.7178 50.1746 30.4275 50.1746 30.0691Z" fill="white"/>
<path d="M46.2827 26.1778V30.0691C46.2827 30.4275 46.5731 30.7178 46.9314 30.7178C47.2895 30.7178 47.5798 30.4275 47.5798 30.0691V26.1778C47.5798 25.8194 47.2895 25.5291 46.9314 25.5291C46.5731 25.5291 46.2827 25.8194 46.2827 26.1778Z" fill="white"/>
<path d="M51.4717 26.1778V30.0691C51.4717 30.4275 51.762 30.7178 52.1201 30.7178C52.4784 30.7178 52.7688 30.4275 52.7688 30.0691V26.1778C52.7688 25.8194 52.4784 25.5291 52.1201 25.5291C51.762 25.5291 51.4717 25.8194 51.4717 26.1778Z" fill="white"/>
<path d="M50.1746 39.7958C50.1746 39.4377 49.8842 39.1473 49.5259 39.1473C49.1678 39.1473 48.8774 39.4377 48.8774 39.7958V43.6871C48.8774 44.0455 49.1678 44.3358 49.5259 44.3358C49.8842 44.3358 50.1746 44.0455 50.1746 43.6871V39.7958Z" fill="white"/>
<path d="M52.7686 43.6871C52.7686 44.0455 53.0589 44.3358 53.417 44.3358C53.7753 44.3358 54.0657 44.0455 54.0657 43.6871V39.7958C54.0657 39.4377 53.7753 39.1473 53.417 39.1473C53.0589 39.1473 52.7686 39.4377 52.7686 39.7958V43.6871Z" fill="white"/>
<path d="M57.3081 39.1473C56.95 39.1473 56.6597 39.4377 56.6597 39.7958V43.6871C56.6597 44.0455 56.95 44.3358 57.3081 44.3358C57.6664 44.3358 57.9568 44.0455 57.9568 43.6871V39.7958C57.9568 39.4377 57.6664 39.1473 57.3081 39.1473Z" fill="white"/>
<path d="M56.6602 25.5291H55.363C54.6466 25.5291 54.0659 26.1098 54.0659 26.8262V29.4207C54.0659 30.1371 54.6466 30.7178 55.363 30.7178H56.6602C57.3766 30.7178 57.9573 30.1371 57.9573 29.4207V26.8262C57.9573 26.1098 57.3766 25.5291 56.6602 25.5291ZM55.363 29.4207V26.8262H56.6602V29.4207H55.363Z" fill="white"/>
<path d="M57.3081 32.6631C56.95 32.6631 56.6597 32.9534 56.6597 33.3118V37.2032C56.6597 37.5612 56.95 37.8516 57.3081 37.8516C57.6664 37.8516 57.9568 37.5612 57.9568 37.2032V33.3118C57.9568 32.9534 57.6664 32.6631 57.3081 32.6631Z" fill="white"/>
<path d="M54.7143 37.8516C55.0727 37.8516 55.363 37.5612 55.363 37.2032V33.3118C55.363 32.9534 55.0727 32.6631 54.7143 32.6631C54.3563 32.6631 54.0659 32.9534 54.0659 33.3118V37.2032C54.0659 37.5612 54.3563 37.8516 54.7143 37.8516Z" fill="white"/>
<path d="M51.4717 37.8516C52.1881 37.8516 52.7688 37.2708 52.7688 36.5544V33.9602C52.7688 33.2438 52.1881 32.6631 51.4717 32.6631H50.1746C49.4582 32.6631 48.8774 33.2438 48.8774 33.9602V36.5544C48.8774 37.2708 49.4582 37.8516 50.1746 37.8516H51.4717ZM50.1746 33.9602H51.4717V36.5544H50.1746V33.9602Z" fill="white"/>
<path d="M49.5259 46.2834C49.1678 46.2834 48.8774 46.5738 48.8774 46.9322V50.8235C48.8774 51.1819 49.1678 51.4722 49.5259 51.4722C49.8842 51.4722 50.1746 51.1819 50.1746 50.8235V46.9322C50.1746 46.5738 49.8842 46.2834 49.5259 46.2834Z" fill="white"/>
<path d="M51.4717 46.9322V50.8235C51.4717 51.1819 51.762 51.4722 52.1201 51.4722C52.4784 51.4722 52.7688 51.1819 52.7688 50.8235V46.9322C52.7688 46.5738 52.4784 46.2834 52.1201 46.2834C51.762 46.2834 51.4717 46.5738 51.4717 46.9322Z" fill="white"/>
<path d="M56.6602 46.2834H55.363C54.6466 46.2834 54.0659 46.8642 54.0659 47.5806V50.1751C54.0659 50.8915 54.6466 51.4722 55.363 51.4722H56.6602C57.3766 51.4722 57.9573 50.8915 57.9573 50.1751V47.5806C57.9573 46.8642 57.3766 46.2834 56.6602 46.2834ZM55.363 50.1751V47.5806H56.6602V50.1751H55.363Z" fill="white"/>
<path d="M27.4744 30.7178C27.8324 30.7178 28.1228 30.4275 28.1228 30.0691V26.1778C28.1228 25.8194 27.8324 25.5291 27.4744 25.5291C27.116 25.5291 26.8257 25.8194 26.8257 26.1778V30.0691C26.8257 30.4275 27.116 30.7178 27.4744 30.7178Z" fill="white"/>
<path d="M30.0683 30.7178C30.4267 30.7178 30.717 30.4275 30.717 30.0691V26.1778C30.717 25.8194 30.4267 25.5291 30.0683 25.5291C29.7103 25.5291 29.4199 25.8194 29.4199 26.1778V30.0691C29.4199 30.4275 29.7103 30.7178 30.0683 30.7178Z" fill="white"/>
<path d="M25.5286 30.0691V26.1778C25.5286 25.8194 25.2382 25.5291 24.8802 25.5291C24.5218 25.5291 24.2314 25.8194 24.2314 26.1778V30.0691C24.2314 30.4275 24.5218 30.7178 24.8802 30.7178C25.2382 30.7178 25.5286 30.4275 25.5286 30.0691Z" fill="white"/>
<path d="M27.4744 44.3358C27.8324 44.3358 28.1228 44.0455 28.1228 43.6871V39.7958C28.1228 39.4377 27.8324 39.1473 27.4744 39.1473C27.116 39.1473 26.8257 39.4377 26.8257 39.7958V43.6871C26.8257 44.0455 27.116 44.3358 27.4744 44.3358Z" fill="white"/>
<path d="M24.2312 43.6871V39.7958C24.2312 39.4377 23.9408 39.1473 23.5828 39.1473C23.2244 39.1473 22.9341 39.4377 22.9341 39.7958V43.6871C22.9341 44.0455 23.2244 44.3358 23.5828 44.3358C23.9408 44.3358 24.2312 44.0455 24.2312 43.6871Z" fill="white"/>
<path d="M19.6917 44.3358C20.0497 44.3358 20.3401 44.0455 20.3401 43.6871V39.7958C20.3401 39.4377 20.0497 39.1473 19.6917 39.1473C19.3333 39.1473 19.043 39.4377 19.043 39.7958V43.6871C19.043 44.0455 19.3333 44.3358 19.6917 44.3358Z" fill="white"/>
<path d="M20.3401 30.7178H21.6372C22.3536 30.7178 22.9343 30.1371 22.9343 29.4207V26.8262C22.9343 26.1098 22.3536 25.5291 21.6372 25.5291H20.3401C19.6237 25.5291 19.043 26.1098 19.043 26.8262V29.4207C19.043 30.1371 19.6237 30.7178 20.3401 30.7178ZM20.3401 26.8262H21.6372V29.4207H20.3401V26.8262Z" fill="white"/>
<path d="M19.6917 37.8516C20.0497 37.8516 20.3401 37.5612 20.3401 37.2032V33.3118C20.3401 32.9534 20.0497 32.6631 19.6917 32.6631C19.3333 32.6631 19.043 32.9534 19.043 33.3118V37.2032C19.043 37.5612 19.3333 37.8516 19.6917 37.8516Z" fill="white"/>
<path d="M22.9343 33.3118C22.9343 32.9534 22.644 32.6631 22.2859 32.6631C21.9276 32.6631 21.6372 32.9534 21.6372 33.3118V37.2032C21.6372 37.5612 21.9276 37.8516 22.2859 37.8516C22.644 37.8516 22.9343 37.5612 22.9343 37.2032V33.3118Z" fill="white"/>
<path d="M24.2314 33.9602V36.5544C24.2314 37.2708 24.8122 37.8516 25.5286 37.8516H26.8257C27.5421 37.8516 28.1228 37.2708 28.1228 36.5544V33.9602C28.1228 33.2438 27.5421 32.6631 26.8257 32.6631H25.5286C24.8122 32.6631 24.2314 33.2438 24.2314 33.9602ZM26.8257 36.5544H25.5286V33.9602H26.8257V36.5544Z" fill="white"/>
<path d="M26.8257 50.8235C26.8257 51.1819 27.116 51.4722 27.4744 51.4722C27.8324 51.4722 28.1228 51.1819 28.1228 50.8235V46.9322C28.1228 46.5738 27.8324 46.2834 27.4744 46.2834C27.116 46.2834 26.8257 46.5738 26.8257 46.9322V50.8235Z" fill="white"/>
<path d="M24.8802 51.4722C25.2382 51.4722 25.5286 51.1819 25.5286 50.8235V46.9322C25.5286 46.5738 25.2382 46.2834 24.8802 46.2834C24.5218 46.2834 24.2314 46.5738 24.2314 46.9322V50.8235C24.2314 51.1819 24.5218 51.4722 24.8802 51.4722Z" fill="white"/>
<path d="M20.3401 51.4722H21.6372C22.3536 51.4722 22.9343 50.8915 22.9343 50.1751V47.5806C22.9343 46.8642 22.3536 46.2834 21.6372 46.2834H20.3401C19.6237 46.2834 19.043 46.8642 19.043 47.5806V50.1751C19.043 50.8915 19.6237 51.4722 20.3401 51.4722ZM20.3401 47.5806H21.6372V50.1751H20.3401V47.5806Z" fill="white"/>
<path d="M56.6599 24.2311C57.018 24.2311 57.3084 23.9407 57.3084 23.5827V19.6913C57.3084 19.333 57.018 19.0426 56.6599 19.0426C56.3016 19.0426 56.0112 19.333 56.0112 19.6913V23.5827C56.0112 23.9407 56.3016 24.2311 56.6599 24.2311Z" fill="white"/>
<path d="M54.0657 24.2311C54.4238 24.2311 54.7141 23.9407 54.7141 23.5827V19.6913C54.7141 19.333 54.4238 19.0426 54.0657 19.0426C53.7074 19.0426 53.417 19.333 53.417 19.6913V23.5827C53.417 23.9407 53.7074 24.2311 54.0657 24.2311Z" fill="white"/>
<path d="M46.2832 24.2311C46.6415 24.2311 46.9319 23.9407 46.9319 23.5827V19.6913C46.9319 19.333 46.6415 19.0426 46.2832 19.0426C45.9251 19.0426 45.6348 19.333 45.6348 19.6913V23.5827C45.6348 23.9407 45.9251 24.2311 46.2832 24.2311Z" fill="white"/>
<path d="M49.5256 24.2311H50.8228C51.5392 24.2311 52.1199 23.6504 52.1199 22.934V20.3397C52.1199 19.6233 51.5392 19.0426 50.8228 19.0426H49.5256C48.8092 19.0426 48.2285 19.6233 48.2285 20.3397V22.934C48.2285 23.6504 48.8092 24.2311 49.5256 24.2311ZM49.5256 20.3397H50.8228V22.934H49.5256V20.3397Z" fill="white"/>
<path d="M41.7429 24.2311H43.04C43.7564 24.2311 44.3372 23.6504 44.3372 22.934V20.3397C44.3372 19.6233 43.7564 19.0426 43.04 19.0426H41.7429C41.0265 19.0426 40.4458 19.6233 40.4458 20.3397V22.934C40.4458 23.6504 41.0265 24.2311 41.7429 24.2311ZM41.7429 20.3397H43.04V22.934H41.7429V20.3397Z" fill="white"/>
<path d="M38.5003 24.2311C38.8583 24.2311 39.149 23.9407 39.149 23.5827V19.6913C39.149 19.333 38.8583 19.0426 38.5003 19.0426C38.1422 19.0426 37.8516 19.333 37.8516 19.6913V23.5827C37.8516 23.9407 38.1422 24.2311 38.5003 24.2311Z" fill="white"/>
<path d="M35.9055 24.2311C36.2636 24.2311 36.554 23.9407 36.554 23.5827V19.6913C36.554 19.333 36.2636 19.0426 35.9055 19.0426C35.5472 19.0426 35.2568 19.333 35.2568 19.6913V23.5827C35.2568 23.9407 35.5472 24.2311 35.9055 24.2311Z" fill="white"/>
<path d="M20.3398 24.2311C20.6982 24.2311 20.9885 23.9407 20.9885 23.5827V19.6913C20.9885 19.333 20.6982 19.0426 20.3398 19.0426C19.9818 19.0426 19.6914 19.333 19.6914 19.6913V23.5827C19.6914 23.9407 19.9818 24.2311 20.3398 24.2311Z" fill="white"/>
<path d="M28.1225 24.2311C28.4809 24.2311 28.7712 23.9407 28.7712 23.5827V19.6913C28.7712 19.333 28.4809 19.0426 28.1225 19.0426C27.7645 19.0426 27.4741 19.333 27.4741 19.6913V23.5827C27.4741 23.9407 27.7645 24.2311 28.1225 24.2311Z" fill="white"/>
<path d="M31.366 24.2311H32.6631C33.3795 24.2311 33.9602 23.6504 33.9602 22.934V20.3397C33.9602 19.6233 33.3795 19.0426 32.6631 19.0426H31.366C30.6496 19.0426 30.0688 19.6233 30.0688 20.3397V22.934C30.0688 23.6504 30.6496 24.2311 31.366 24.2311ZM31.366 20.3397H32.6631V22.934H31.366V20.3397Z" fill="white"/>
<path d="M23.5833 24.2311H24.8804C25.5968 24.2311 26.1775 23.6504 26.1775 22.934V20.3397C26.1775 19.6233 25.5968 19.0426 24.8804 19.0426H23.5833C22.8669 19.0426 22.2861 19.6233 22.2861 20.3397V22.934C22.2861 23.6504 22.8669 24.2311 23.5833 24.2311ZM23.5833 20.3397H24.8804V22.934H23.5833V20.3397Z" fill="white"/>
<path d="M19.6914 53.4161V57.3075C19.6914 57.6658 19.9818 57.9562 20.3398 57.9562C20.6982 57.9562 20.9885 57.6658 20.9885 57.3075V53.4161C20.9885 53.0581 20.6982 52.7677 20.3398 52.7677C19.9818 52.7677 19.6914 53.0581 19.6914 53.4161Z" fill="white"/>
<path d="M22.2861 53.4161V57.3075C22.2861 57.6658 22.5765 57.9562 22.9345 57.9562C23.2929 57.9562 23.5833 57.6658 23.5833 57.3075V53.4161C23.5833 53.0581 23.2929 52.7677 22.9345 52.7677C22.5765 52.7677 22.2861 53.0581 22.2861 53.4161Z" fill="white"/>
<path d="M30.0688 53.4161V57.3075C30.0688 57.6658 30.3592 57.9562 30.7176 57.9562C31.0756 57.9562 31.366 57.6658 31.366 57.3075V53.4161C31.366 53.0581 31.0756 52.7677 30.7176 52.7677C30.3592 52.7677 30.0688 53.0581 30.0688 53.4161Z" fill="white"/>
<path d="M26.1775 57.9562H27.4746C28.191 57.9562 28.7717 57.3755 28.7717 56.6591V54.0648C28.7717 53.3484 28.191 52.7677 27.4746 52.7677H26.1775C25.4611 52.7677 24.8804 53.3484 24.8804 54.0648V56.6591C24.8804 57.3755 25.4611 57.9562 26.1775 57.9562ZM26.1775 54.0648H27.4746V56.6591H26.1775V54.0648Z" fill="white"/>
<path d="M33.9597 52.7677C33.2433 52.7677 32.6626 53.3484 32.6626 54.0648V56.6591C32.6626 57.3755 33.2433 57.9562 33.9597 57.9562H35.2568C35.9732 57.9562 36.554 57.3755 36.554 56.6591V54.0648C36.554 53.3484 35.9732 52.7677 35.2568 52.7677H33.9597ZM33.9597 56.6591V54.0648H35.2568V56.6591H33.9597Z" fill="white"/>
<path d="M37.8516 53.4161V57.3075C37.8516 57.6658 38.1422 57.9562 38.5003 57.9562C38.8583 57.9562 39.149 57.6658 39.149 57.3075V53.4161C39.149 53.0581 38.8583 52.7677 38.5003 52.7677C38.1422 52.7677 37.8516 53.0581 37.8516 53.4161Z" fill="white"/>
<path d="M40.4458 53.4161V57.3075C40.4458 57.6658 40.7362 57.9562 41.0942 57.9562C41.4526 57.9562 41.7429 57.6658 41.7429 57.3075V53.4161C41.7429 53.0581 41.4526 52.7677 41.0942 52.7677C40.7362 52.7677 40.4458 53.0581 40.4458 53.4161Z" fill="white"/>
<path d="M57.3084 57.3075V53.4161C57.3084 53.0581 57.018 52.7677 56.6599 52.7677C56.3016 52.7677 56.0112 53.0581 56.0112 53.4161V57.3075C56.0112 57.6658 56.3016 57.9562 56.6599 57.9562C57.018 57.9562 57.3084 57.6658 57.3084 57.3075Z" fill="white"/>
<path d="M48.8772 57.9562C49.2353 57.9562 49.5256 57.6658 49.5256 57.3075V53.4161C49.5256 53.0581 49.2353 52.7677 48.8772 52.7677C48.5189 52.7677 48.2285 53.0581 48.2285 53.4161V57.3075C48.2285 57.6658 48.5189 57.9562 48.8772 57.9562Z" fill="white"/>
<path d="M44.3372 52.7677C43.6208 52.7677 43.04 53.3484 43.04 54.0648V56.6591C43.04 57.3755 43.6208 57.9562 44.3372 57.9562H45.6343C46.3507 57.9562 46.9314 57.3755 46.9314 56.6591V54.0648C46.9314 53.3484 46.3507 52.7677 45.6343 52.7677H44.3372ZM44.3372 56.6591V54.0648H45.6343V56.6591H44.3372Z" fill="white"/>
<path d="M52.1199 57.9562H53.417C54.1334 57.9562 54.7141 57.3755 54.7141 56.6591V54.0648C54.7141 53.3484 54.1334 52.7677 53.417 52.7677H52.1199C51.4035 52.7677 50.8228 53.3484 50.8228 54.0648V56.6591C50.8228 57.3755 51.4035 57.9562 52.1199 57.9562ZM52.1199 54.0648H53.417V56.6591H52.1199V54.0648Z" fill="white"/>
</g>
</g>
<defs>
<clipPath id="clip0_6015_648">
<rect width="75.3446" height="77.0005" fill="white" transform="translate(0.827637 -0.000488281)"/>
</clipPath>
<clipPath id="clip1_6015_648">
<rect width="38.9142" height="38.9142" fill="white" transform="translate(19.043 19.0426)"/>
</clipPath>
</defs>
</svg>
