<svg width="99" height="25" viewBox="0 0 99 25" fill="none" xmlns="http://www.w3.org/2000/svg">
<path d="M7.152 19H0.96V17.752L2.976 17.296V3.592L0.96 3.112V1.864H7.152V3.112L5.136 3.592V17.296L7.152 17.752V19ZM15.4048 5.896C16.9408 5.896 18.1008 6.272 18.8848 7.024C19.6688 7.76 20.0608 8.96 20.0608 10.624V19H17.9728V10.768C17.9728 9.728 17.7408 8.952 17.2768 8.44C16.8128 7.928 16.0848 7.672 15.0928 7.672C13.6688 7.672 12.6848 8.072 12.1408 8.872C11.5968 9.672 11.3248 10.824 11.3248 12.328V19H9.21281V6.136H10.9168L11.2288 7.888H11.3488C11.6368 7.44 11.9888 7.072 12.4048 6.784C12.8368 6.48 13.3088 6.256 13.8208 6.112C14.3328 5.968 14.8608 5.896 15.4048 5.896ZM31.4648 15.448C31.4648 16.28 31.2568 16.976 30.8408 17.536C30.4248 18.096 29.8328 18.52 29.0648 18.808C28.2968 19.096 27.3848 19.24 26.3288 19.24C25.4328 19.24 24.6568 19.168 24.0008 19.024C23.3608 18.88 22.7928 18.68 22.2967 18.424V16.504C22.8088 16.76 23.4248 17 24.1448 17.224C24.8808 17.432 25.6248 17.536 26.3768 17.536C27.4488 17.536 28.2248 17.368 28.7048 17.032C29.1848 16.68 29.4248 16.216 29.4248 15.64C29.4248 15.32 29.3368 15.032 29.1608 14.776C28.9848 14.52 28.6648 14.264 28.2008 14.008C27.7528 13.752 27.1048 13.464 26.2568 13.144C25.4248 12.824 24.7128 12.504 24.1208 12.184C23.5288 11.864 23.0728 11.48 22.7527 11.032C22.4327 10.584 22.2727 10.008 22.2727 9.304C22.2727 8.216 22.7128 7.376 23.5928 6.784C24.4887 6.192 25.6567 5.896 27.0968 5.896C27.8808 5.896 28.6088 5.976 29.2808 6.136C29.9688 6.28 30.6088 6.488 31.2008 6.76L30.4808 8.44C30.1288 8.28 29.7528 8.144 29.3528 8.032C28.9688 7.904 28.5768 7.808 28.1768 7.744C27.7768 7.664 27.3688 7.624 26.9528 7.624C26.0888 7.624 25.4247 7.768 24.9607 8.056C24.5128 8.328 24.2888 8.704 24.2888 9.184C24.2888 9.536 24.3928 9.84 24.6007 10.096C24.8088 10.336 25.1528 10.576 25.6328 10.816C26.1288 11.04 26.7848 11.312 27.6007 11.632C28.4167 11.936 29.1128 12.248 29.6888 12.568C30.2648 12.888 30.7048 13.28 31.0088 13.744C31.3128 14.192 31.4648 14.76 31.4648 15.448ZM35.7251 6.136V19H33.6131V6.136H35.7251ZM34.6931 1.312C35.0131 1.312 35.2931 1.424 35.5331 1.648C35.7891 1.856 35.9171 2.192 35.9171 2.656C35.9171 3.104 35.7891 3.44 35.5331 3.664C35.2931 3.888 35.0131 4 34.6931 4C34.3411 4 34.0451 3.888 33.8051 3.664C33.5651 3.44 33.4451 3.104 33.4451 2.656C33.4451 2.192 33.5651 1.856 33.8051 1.648C34.0451 1.424 34.3411 1.312 34.6931 1.312ZM43.4006 5.896C44.2486 5.896 45.0086 6.056 45.6806 6.376C46.3686 6.696 46.9526 7.184 47.4326 7.84H47.5526L47.8406 6.136H49.5206V19.216C49.5206 20.432 49.3126 21.448 48.8966 22.264C48.4806 23.096 47.8486 23.72 47.0006 24.136C46.1526 24.552 45.0726 24.76 43.7606 24.76C42.8326 24.76 41.9766 24.688 41.1926 24.544C40.4246 24.416 39.7366 24.216 39.1286 23.944V22C39.5446 22.208 40.0006 22.384 40.4966 22.528C40.9926 22.688 41.5286 22.808 42.1046 22.888C42.6806 22.968 43.2726 23.008 43.8806 23.008C44.9846 23.008 45.8486 22.68 46.4726 22.024C47.1126 21.384 47.4326 20.504 47.4326 19.384V18.88C47.4326 18.688 47.4406 18.416 47.4566 18.064C47.4726 17.696 47.4886 17.44 47.5046 17.296H47.4086C46.9606 17.952 46.4006 18.44 45.7286 18.76C45.0726 19.08 44.3046 19.24 43.4246 19.24C41.7606 19.24 40.4566 18.656 39.5126 17.488C38.5846 16.32 38.1206 14.688 38.1206 12.592C38.1206 11.216 38.3286 10.032 38.7446 9.04C39.1766 8.032 39.7846 7.256 40.5686 6.712C41.3526 6.168 42.2966 5.896 43.4006 5.896ZM43.6886 7.672C42.9686 7.672 42.3526 7.864 41.8406 8.248C41.3446 8.632 40.9606 9.192 40.6886 9.928C40.4326 10.664 40.3046 11.56 40.3046 12.616C40.3046 14.2 40.5926 15.416 41.1686 16.264C41.7606 17.096 42.6166 17.512 43.7366 17.512C44.3926 17.512 44.9526 17.432 45.4166 17.272C45.8806 17.096 46.2646 16.832 46.5686 16.48C46.8726 16.112 47.0966 15.648 47.2406 15.088C47.3846 14.528 47.4566 13.864 47.4566 13.096V12.592C47.4566 11.424 47.3206 10.48 47.0486 9.76C46.7926 9.04 46.3846 8.512 45.8246 8.176C45.2646 7.84 44.5526 7.672 43.6886 7.672ZM54.7583 6.112C54.7583 6.416 54.7423 6.728 54.7103 7.048C54.6943 7.368 54.6703 7.656 54.6383 7.912H54.7823C55.0543 7.464 55.3983 7.096 55.8143 6.808C56.2303 6.52 56.6943 6.304 57.2063 6.16C57.7183 6 58.2463 5.92 58.7903 5.92C59.8303 5.92 60.6943 6.088 61.3823 6.424C62.0863 6.744 62.6143 7.248 62.9663 7.936C63.3183 8.624 63.4943 9.52 63.4943 10.624V19H61.4063V10.768C61.4063 9.728 61.1743 8.952 60.7103 8.44C60.2463 7.928 59.5183 7.672 58.5263 7.672C57.5663 7.672 56.8143 7.856 56.2703 8.224C55.7263 8.576 55.3343 9.104 55.0943 9.808C54.8703 10.496 54.7583 11.344 54.7583 12.352V19H52.6463V0.759999H54.7583V6.112ZM70.8182 17.512C71.1382 17.512 71.4662 17.488 71.8022 17.44C72.1382 17.376 72.4102 17.312 72.6182 17.248V18.856C72.3942 18.968 72.0742 19.056 71.6582 19.12C71.2422 19.2 70.8422 19.24 70.4582 19.24C69.7862 19.24 69.1622 19.128 68.5862 18.904C68.0262 18.664 67.5702 18.256 67.2182 17.68C66.8662 17.104 66.6902 16.296 66.6902 15.256V7.768H64.8662V6.76L66.7142 5.92L67.5542 3.184H68.8022V6.136H72.5222V7.768H68.8022V15.208C68.8022 15.992 68.9862 16.576 69.3542 16.96C69.7382 17.328 70.2262 17.512 70.8182 17.512ZM80.7621 19H72.9621V16.936L75.0501 15.976V4.888L72.9621 3.928V1.864H80.7621V3.928L78.6741 4.888V15.976L80.7621 16.936V19ZM98.2742 10.408C98.2742 11.688 98.1222 12.856 97.8182 13.912C97.5142 14.968 97.0502 15.888 96.4262 16.672C95.8022 17.44 95.0102 18.04 94.0502 18.472L98.1782 23.08H93.5222L90.3782 19.24C90.3302 19.24 90.2822 19.24 90.2342 19.24C90.2022 19.24 90.1622 19.24 90.1142 19.24C88.7222 19.24 87.5062 19.032 86.4662 18.616C85.4422 18.184 84.5942 17.584 83.9222 16.816C83.2662 16.032 82.7702 15.096 82.4342 14.008C82.1142 12.92 81.9542 11.712 81.9542 10.384C81.9542 8.608 82.2422 7.064 82.8182 5.752C83.4102 4.44 84.3062 3.424 85.5062 2.704C86.7222 1.968 88.2662 1.6 90.1382 1.6C91.9942 1.6 93.5222 1.968 94.7222 2.704C95.9222 3.424 96.8102 4.448 97.3862 5.776C97.9782 7.088 98.2742 8.632 98.2742 10.408ZM85.7702 10.408C85.7702 11.608 85.9222 12.64 86.2262 13.504C86.5302 14.368 87.0022 15.032 87.6422 15.496C88.2822 15.96 89.1062 16.192 90.1142 16.192C91.1542 16.192 91.9862 15.96 92.6102 15.496C93.2502 15.032 93.7142 14.368 94.0022 13.504C94.3062 12.64 94.4582 11.608 94.4582 10.408C94.4582 8.6 94.1222 7.184 93.4502 6.16C92.7782 5.136 91.6742 4.624 90.1382 4.624C89.1142 4.624 88.2822 4.856 87.6422 5.32C87.0022 5.784 86.5302 6.448 86.2262 7.312C85.9222 8.176 85.7702 9.208 85.7702 10.408Z" fill="white"/>
</svg>
