<svg width="39" height="37" viewBox="0 0 39 37" fill="none" xmlns="http://www.w3.org/2000/svg">
<path fill-rule="evenodd" clip-rule="evenodd" d="M11.2325 6.07898C11.7805 4.24452 10.7376 2.31313 8.90317 1.7651C7.06871 1.21708 5.13732 2.25994 4.5893 4.09439L0.0170404 19.3995C0.0159624 19.4031 0.0126433 19.4055 0.00887731 19.4055C0.00417209 19.4055 0.000357763 19.4094 0.000357763 19.4141V19.4551C0.000357763 19.4552 0.000339734 19.4554 0.000304241 19.4555L1.05807e-05 19.4565C-2.90897e-05 19.4566 4.62363e-05 19.4567 0.000178915 19.4568C0.000285077 19.4568 0.000357763 19.4569 0.000357763 19.457V32.8388C0.000357763 34.7533 1.55242 36.3054 3.46699 36.3054H13.4336C15.3481 36.3054 16.9002 34.7533 16.9002 32.8388V22.8722C16.9002 20.9576 15.3481 19.4055 13.4336 19.4055H11.9049C9.58442 19.4055 7.91911 17.17 8.58333 14.9466L11.2325 6.07898Z" fill="white" fill-opacity="0.6"/>
<path fill-rule="evenodd" clip-rule="evenodd" d="M33.3321 5.23279C33.8801 3.39833 32.8372 1.46694 31.0028 0.918912C29.1683 0.370884 27.2369 1.41374 26.6889 3.2482L22.1166 18.5533C22.1156 18.5569 22.1123 18.5594 22.1085 18.5594C22.1038 18.5594 22.1 18.5632 22.1 18.5679V18.6089C22.1 18.6091 22.0999 18.6092 22.0999 18.6093L22.0996 18.6103C22.0996 18.6104 22.0997 18.6106 22.0998 18.6106C22.0999 18.6106 22.1 18.6107 22.1 18.6108V31.9926C22.1 33.9071 23.652 35.4592 25.5666 35.4592H35.5332C37.4477 35.4592 38.9998 33.9071 38.9998 31.9926V22.026C38.9998 20.1114 37.4477 18.5594 35.5332 18.5594H34.0045C31.684 18.5594 30.0187 16.3238 30.6829 14.1004L33.3321 5.23279Z" fill="white" fill-opacity="0.6"/>
</svg>
