<svg width="133" height="53" viewBox="0 0 133 53" fill="none" xmlns="http://www.w3.org/2000/svg">
<g clip-path="url(#clip0_6041_393)">
<mask id="mask0_6041_393" style="mask-type:luminance" maskUnits="userSpaceOnUse" x="0" y="8" width="136" height="37">
<path d="M0.662598 44.4467H135.065V8.60832H0.662598V44.4467Z" fill="white"/>
</mask>
<g mask="url(#mask0_6041_393)">
<path d="M115.266 27.7833C115.266 27.543 115.317 27.2999 115.422 27.0513C115.526 26.8036 115.677 26.5761 115.878 26.368C116.077 26.1599 116.33 25.9886 116.634 25.8524C116.937 25.7161 117.289 25.6479 117.689 25.6479C118.088 25.6479 118.433 25.7161 118.721 25.8524C119.009 25.9886 119.248 26.1599 119.441 26.368C119.632 26.5761 119.776 26.8036 119.872 27.0513C119.968 27.2999 120.015 27.543 120.015 27.7833H115.266ZM121.624 31.1894C121.367 31.3819 120.959 31.6093 120.4 31.8736C119.84 32.137 119.113 32.2696 118.217 32.2696C117.305 32.2696 116.589 32.0412 116.07 31.5854C115.55 31.1296 115.282 30.5983 115.266 29.9905H123.278V29.415C123.278 28.4712 123.159 27.6028 122.919 26.8119C122.679 26.0199 122.323 25.3404 121.852 24.7722C121.38 24.205 120.799 23.7612 120.112 23.4417C119.424 23.1212 118.625 22.9619 117.713 22.9619C116.802 22.9619 115.986 23.1258 115.266 23.4536C114.547 23.7814 113.939 24.217 113.443 24.7603C112.947 25.3045 112.568 25.9398 112.304 26.6682C112.04 27.3957 111.908 28.1516 111.908 28.9343C111.908 29.8303 112.048 30.6498 112.328 31.3939C112.607 32.137 113.015 32.7732 113.551 33.3009C114.086 33.8285 114.739 34.241 115.506 34.5366C116.274 34.8322 117.137 34.9805 118.097 34.9805C118.817 34.9805 119.456 34.9114 120.015 34.776C120.576 34.6397 121.06 34.4841 121.468 34.3083C121.876 34.1324 122.207 33.9528 122.462 33.7687C122.719 33.5845 122.911 33.4528 123.039 33.3727L121.624 31.1894ZM83.388 31.5974C83.1642 31.7576 82.9248 31.8975 82.6688 32.0173C82.4128 32.137 82.109 32.1977 81.7572 32.1977C81.2931 32.1977 80.9533 32.0495 80.7378 31.753C80.5215 31.4574 80.4137 31.0375 80.4137 30.4942V26.0559H83.3171V23.345H80.4137V20.3302H76.9597V23.345H75.1789V26.0559H76.9597V30.3018C76.9597 31.0062 77.0315 31.6452 77.1752 32.2217C77.3198 32.7972 77.5592 33.2889 77.8953 33.6968C78.2305 34.1048 78.6706 34.4243 79.2139 34.6563C79.7581 34.8875 80.4303 35.0044 81.2296 35.0044C82.5086 35.0044 83.6928 34.5725 84.7803 33.7088L83.388 31.5974ZM113.294 19.3394C112.782 18.9075 112.215 18.6037 111.592 18.4278C110.967 18.2519 110.351 18.1635 109.744 18.1635C109.169 18.1635 108.605 18.2556 108.053 18.4398C107.501 18.6239 107.01 18.9038 106.577 19.2795C106.145 19.6552 105.798 20.1304 105.535 20.7068C105.27 21.2823 105.138 21.9702 105.138 22.7695V23.345H103.315V26.0559H105.138V34.5965H108.568V26.0559H111.232V23.345H108.568V22.7216C108.568 22.1617 108.712 21.7298 109.001 21.426C109.288 21.123 109.672 20.9702 110.152 20.9702C110.455 20.9702 110.751 21.0181 111.039 21.1138C111.328 21.2105 111.592 21.3468 111.831 21.5217L113.294 19.3394ZM98.1128 34.5965H101.567V23.345H99.8394H98.1128V34.5965ZM86.0731 34.5965H96.5981V31.6333H89.6956V18.5954H86.0731V34.5965ZM66.3399 27.7833C66.3399 27.543 66.3915 27.2999 66.4955 27.0513C66.5996 26.8036 66.7515 26.5761 66.9513 26.368C67.1511 26.1599 67.4034 25.9886 67.7073 25.8524C68.0112 25.7161 68.3629 25.6479 68.7626 25.6479C69.1622 25.6479 69.5066 25.7161 69.7939 25.8524C70.0821 25.9886 70.3225 26.1599 70.514 26.368C70.7055 26.5761 70.8501 26.8036 70.9458 27.0513C71.0416 27.2999 71.0895 27.543 71.0895 27.7833H66.3399ZM72.6972 31.1894C72.4413 31.3819 72.0333 31.6093 71.4735 31.8736C70.9136 32.137 70.1862 32.2696 69.2902 32.2696C68.3786 32.2696 67.6631 32.0412 67.1438 31.5854C66.6235 31.1296 66.3556 30.5983 66.3399 29.9905H74.352V29.415C74.352 28.4712 74.2323 27.6028 73.9928 26.8119C73.7525 26.0199 73.3961 25.3404 72.9247 24.7722C72.4532 24.205 71.8731 23.7612 71.1853 23.4417C70.4983 23.1212 69.6981 22.9619 68.7865 22.9619C67.8749 22.9619 67.06 23.1258 66.3399 23.4536C65.6207 23.7814 65.0121 24.217 64.5167 24.7603C64.0204 25.3045 63.641 25.9398 63.3776 26.6682C63.1133 27.3957 62.9817 28.1516 62.9817 28.9343C62.9817 29.8303 63.1207 30.6498 63.4016 31.3939C63.6806 32.137 64.0885 32.7732 64.6244 33.3009C65.1603 33.8285 65.8123 34.241 66.5793 34.5366C67.3473 34.8322 68.211 34.9805 69.1705 34.9805C69.8906 34.9805 70.5296 34.9114 71.0895 34.776C71.6494 34.6397 72.1337 34.4841 72.5416 34.3083C72.9486 34.1324 73.281 33.9528 73.5361 33.7687C73.7921 33.5845 73.9846 33.4528 74.1125 33.3727L72.6972 31.1894ZM44.8931 34.5965H48.3471L48.755 24.2087L52.2578 30.3745H54.1289L57.4392 24.1369L57.8951 34.5965H61.5176L60.7735 18.5954H57.3186L53.2412 26.1037L49.0672 18.5954H45.6362L44.8931 34.5965ZM99.8394 22.0586C98.773 22.0586 97.8927 21.1783 97.8927 20.111C97.8927 19.0438 98.773 18.1635 99.8394 18.1635C100.933 18.1635 101.787 19.0171 101.787 20.111C101.787 21.1783 100.907 22.0586 99.8394 22.0586Z" fill="white"/>
<path d="M23.5981 22.1174C26.3155 25.715 27.9278 30.1957 27.9278 35.0558C27.9278 36.228 27.833 37.3781 27.6516 38.5006H35.5191C36.2033 38.5006 36.7576 37.9444 36.7576 37.2584V15.5077C36.7576 14.6974 35.9942 14.0979 35.2125 14.3042C30.5144 15.5446 26.4481 18.3438 23.5981 22.1174Z" fill="white"/>
<path d="M19.5445 38.5006C19.364 37.3791 19.2682 36.2289 19.2682 35.0558C19.2682 30.1967 20.8815 25.715 23.5979 22.1174C20.748 18.3439 16.6816 15.5446 11.9836 14.3051C11.2018 14.0989 10.4385 14.6974 10.4385 15.5077V37.2593C10.4385 37.9444 10.9937 38.5006 11.6779 38.5006H19.5445Z" fill="white"/>
<path d="M23.5987 22.1174C20.8814 25.715 19.269 30.1957 19.269 35.0558C19.269 36.228 19.3639 37.3781 19.5453 38.5006H27.6522C27.8336 37.3781 27.9284 36.228 27.9284 35.0558C27.9284 30.1957 26.3161 25.715 23.5987 22.1174Z" fill="white" fill-opacity="0.52"/>
</g>
</g>
<defs>
<clipPath id="clip0_6041_393">
<rect width="113.531" height="24.928" fill="white" transform="translate(10.0928 13.9226)"/>
</clipPath>
</defs>
</svg>
