<svg width="149" height="53" viewBox="0 0 149 53" fill="none" xmlns="http://www.w3.org/2000/svg">
<g clip-path="url(#clip0_6041_409)">
<path d="M139.378 13.7756H10.3047V39.0012H139.378V13.7756Z" fill="white"/>
<path d="M128.103 32.4326C130.366 32.4326 131.414 31.4402 131.414 29.7576C131.414 28.2906 131.414 28.2906 131.414 28.2906C131.414 27.8161 131.288 27.6003 130.953 27.2983C129.444 26.0039 129.444 26.0039 129.444 26.0039C130.953 24.7095 130.953 24.7095 130.953 24.7095C131.288 24.4075 131.414 24.1918 131.414 23.7171C131.414 22.4229 131.414 22.4229 131.414 22.4229C131.414 20.7402 130.366 19.7478 128.103 19.7478C113.769 19.7478 113.769 19.7478 113.769 19.7478C113.769 32.4326 113.769 32.4326 113.769 32.4326H128.103Z" fill="#077657"/>
<path d="M129.065 30.2756C116.115 30.2756 116.115 30.2756 116.115 30.2756C116.115 27.1261 116.115 27.1261 116.115 27.1261C129.065 27.1261 129.065 27.1261 129.065 27.1261V30.2756Z" fill="white"/>
<path d="M116.115 21.9066C129.065 21.9066 129.065 21.9066 129.065 21.9066C129.065 24.9699 129.065 24.9699 129.065 24.9699C116.115 24.9699 116.115 24.9699 116.115 24.9699V21.9066Z" fill="white"/>
<path d="M103.038 32.4326C105.343 32.4326 106.392 31.4402 106.392 29.7576C106.392 28.2906 106.392 28.2906 106.392 28.2906C106.392 27.8161 106.266 27.6003 105.93 27.2983C104.421 26.0039 104.421 26.0039 104.421 26.0039C105.93 24.7095 105.93 24.7095 105.93 24.7095C106.266 24.4075 106.392 24.1918 106.392 23.7171C106.392 22.4229 106.392 22.4229 106.392 22.4229C106.392 20.7402 105.343 19.7478 103.038 19.7478C88.7466 19.7478 88.7466 19.7478 88.7466 19.7478C88.7466 32.4326 88.7466 32.4326 88.7466 32.4326H103.038Z" fill="#077657"/>
<path d="M104.045 30.2756C91.0937 30.2756 91.0938 30.2756 91.0938 30.2756C91.0938 27.1261 91.0938 27.1261 91.0938 27.1261C104.045 27.1261 104.045 27.1261 104.045 27.1261V30.2756Z" fill="white"/>
<path d="M91.0938 21.9066C104.045 21.9066 104.045 21.9066 104.045 21.9066C104.045 24.9699 104.045 24.9699 104.045 24.9699C91.0937 24.9699 91.0938 24.9699 91.0938 24.9699V21.9066Z" fill="white"/>
<path d="M78.394 19.7478C78.394 30.1891 78.394 30.189 78.394 30.189C66.1553 30.189 66.1553 30.189 66.1553 30.189C66.1553 19.7478 66.1553 19.7478 66.1553 19.7478C63.8086 19.7478 63.8086 19.7478 63.8086 19.7478C63.8086 29.5418 63.8086 29.5418 63.8086 29.5418C63.8086 31.354 64.8978 32.4326 66.9942 32.4326C77.5566 32.4326 77.5566 32.4326 77.5566 32.4326C79.6515 32.4326 80.7407 31.354 80.7407 29.5418C80.7407 19.7478 80.7407 19.7478 80.7407 19.7478H78.394Z" fill="#077657"/>
<path d="M41.0499 24.9253C41.0499 19.7478 41.0499 19.7478 41.0499 19.7478C38.7456 19.7478 38.7456 19.7478 38.7456 19.7478C38.7456 32.4326 38.7456 32.4326 38.7456 32.4326C41.0499 32.4326 41.0499 32.4326 41.0499 32.4326C41.0499 27.1688 41.0499 27.1688 41.0499 27.1688C53.4979 27.1688 53.4979 27.1688 53.4979 27.1688C53.4979 32.4326 53.4979 32.4326 53.4979 32.4326C55.8036 32.4326 55.8036 32.4326 55.8036 32.4326C55.8036 19.7478 55.8036 19.7478 55.8036 19.7478C53.4979 19.7478 53.4979 19.7478 53.4979 19.7478C53.4979 24.9253 53.4979 24.9253 53.4979 24.9253H41.0499Z" fill="#077657"/>
<path d="M31.9555 21.9914C31.9555 19.7478 31.9555 19.7478 31.9555 19.7478C18.2914 19.7478 18.2914 19.7478 18.2914 19.7478C16.1958 19.7478 15.1479 20.8265 15.1479 22.6385C15.1479 29.5418 15.1479 29.5418 15.1479 29.5418C15.1479 31.354 16.1958 32.4326 18.2914 32.4326C31.9555 32.4326 31.9555 32.4326 31.9555 32.4326C31.9555 30.189 31.9555 30.189 31.9555 30.189C17.495 30.189 17.495 30.189 17.495 30.189C17.495 21.9914 17.495 21.9914 17.495 21.9914H31.9555Z" fill="#077657"/>
<path d="M136.899 21.1262C136.48 21.5575 136.061 21.7302 135.473 21.7302C134.969 21.7302 134.469 21.5575 134.132 21.1262C133.713 20.7811 133.546 20.2632 133.546 19.7454C133.546 19.1413 133.713 18.7097 134.132 18.2784C134.469 17.9333 134.969 17.6743 135.473 17.6743C136.061 17.6743 136.48 17.9333 136.899 18.2784C137.233 18.7097 137.484 19.1413 137.484 19.7454C137.484 20.2632 137.233 20.7811 136.899 21.1262ZM134.299 18.5373C133.965 18.7962 133.798 19.2275 133.798 19.7454C133.798 20.1767 133.965 20.6084 134.299 20.9535C134.636 21.2986 135.054 21.4713 135.473 21.4713C135.977 21.4713 136.395 21.2986 136.732 20.9535C137.066 20.6084 137.151 20.1767 137.151 19.7454C137.151 19.2275 137.066 18.7962 136.732 18.5373C136.395 18.1921 135.977 18.0194 135.473 18.0194C135.054 18.0194 134.636 18.1921 134.299 18.5373ZM135.473 18.6234C135.725 18.6234 135.892 18.6234 136.061 18.7096C136.313 18.7961 136.395 18.9685 136.395 19.2274C136.395 19.4864 136.313 19.5726 136.143 19.6591C136.061 19.7452 135.977 19.7452 135.892 19.8315C136.061 19.8315 136.143 19.918 136.228 20.0042C136.313 20.0904 136.313 20.2631 136.313 20.3493C136.313 20.522 136.313 20.522 136.313 20.522C136.313 20.6082 136.395 20.6082 136.395 20.6944C136.395 20.7809 136.395 20.7809 136.395 20.7809C136.395 20.8671 136.395 20.8671 136.395 20.8671C136.062 20.8671 136.062 20.8671 136.062 20.8671C136.062 20.7809 136.062 20.7809 136.062 20.7809C135.977 20.6945 135.977 20.6944 135.977 20.6944C135.977 20.522 135.977 20.522 135.977 20.522C135.977 20.2631 135.977 20.0904 135.81 20.0042C135.725 20.0042 135.558 19.918 135.391 19.918C135.054 19.918 135.054 19.918 135.054 19.918C135.054 20.8672 135.054 20.8672 135.054 20.8672C134.72 20.8672 134.72 20.8672 134.72 20.8672C134.72 18.6234 134.72 18.6234 134.72 18.6234H135.473ZM135.892 18.9686C135.81 18.8824 135.64 18.8824 135.391 18.8824C135.054 18.8824 135.054 18.8824 135.054 18.8824C135.054 19.6592 135.054 19.6592 135.054 19.6592C135.473 19.6592 135.473 19.6592 135.473 19.6592C135.558 19.6592 135.725 19.6592 135.81 19.6592C135.977 19.5727 135.977 19.4865 135.977 19.3141C135.977 19.1414 135.977 19.0551 135.892 18.9686Z" fill="#077657"/>
</g>
<defs>
<clipPath id="clip0_6041_409">
<rect width="129.074" height="25.2256" fill="white" transform="translate(10.3052 13.7737)"/>
</clipPath>
</defs>
</svg>
