<svg width="174" height="75" viewBox="0 0 174 75" fill="none" xmlns="http://www.w3.org/2000/svg">
<path d="M16 20.8313H49.2651V53.9417H16V20.8313Z" fill="white"/>
<path d="M63.0601 30.3506C64.4616 30.3506 65.6779 30.723 66.614 31.4692L65.6792 32.5878C64.837 32.0298 63.9962 31.6573 62.9689 31.6573C61.3783 31.6573 60.1633 32.4956 59.5088 34.0788C59.1346 35.0092 58.9482 36.2199 58.9482 37.803C58.9482 39.0137 59.1333 40.0376 59.4163 40.7824C60.1646 42.5511 61.381 43.3881 63.2505 43.3881C64.2791 43.3881 65.2152 43.1091 66.0561 42.4577L66.9908 43.6684C65.7744 44.4133 64.4787 44.787 63.0641 44.787C61.381 44.787 59.9782 44.1356 58.8557 42.7393C57.7319 41.4233 57.2651 39.6678 57.2651 37.528C57.2651 35.3882 57.8257 33.7116 58.9482 32.3167C59.9768 31.1059 61.381 30.3611 63.0641 30.3611L63.0601 30.3506ZM68.391 39.5665C68.391 37.8912 68.7651 36.5871 69.6073 35.658C70.4495 34.7289 71.4782 34.1683 72.7871 34.1683C74.2838 34.1683 75.4975 34.7262 76.341 35.937C76.9955 36.8674 77.2758 38.1715 77.2758 39.7533C77.2758 41.6155 76.7152 43.1052 75.6852 44.0356C74.9108 44.7128 73.9103 45.0779 72.8796 45.0594C71.4782 45.0594 70.4469 44.5936 69.606 43.5697C68.7638 42.6393 68.391 41.243 68.391 39.5665ZM74.9382 36.8687C74.4702 36.0304 73.8144 35.5527 72.7871 35.5527C71.7598 35.5527 71.104 35.9251 70.636 36.6713C70.2618 37.2293 70.1679 38.161 70.1679 39.3691C70.1679 40.9522 70.353 42.0669 70.8224 42.7209C71.2917 43.3749 71.9462 43.7447 72.8796 43.7447C74.0035 43.7447 74.7505 43.1868 75.1246 42.1616C75.3097 41.6036 75.4049 40.8456 75.4049 39.927C75.4975 38.5321 75.3124 37.5056 74.9369 36.8555L74.9382 36.8687ZM80.2664 37.0529C80.2664 36.0291 80.1739 35.1908 79.8923 34.5525L81.4828 34.1801C81.7631 34.646 81.857 35.2039 81.857 35.6698V35.7619C82.2312 35.3895 82.6053 35.0171 83.1791 34.7381C83.8336 34.3657 84.3955 34.1801 84.9561 34.1801C85.7983 34.1801 86.5466 34.5525 87.0133 35.2039C87.1059 35.3882 87.2936 35.6698 87.3875 35.8554C88.5113 34.7368 89.5386 34.1801 90.6611 34.1801C91.4095 34.1801 92.0626 34.4591 92.532 34.925C93 35.4829 93.2803 36.1357 93.2803 36.8805V44.6054H91.5721V36.9726C91.5721 35.9488 91.104 35.4829 90.2499 35.4829C89.7819 35.4829 89.2213 35.6672 88.7533 36.0409C88.5682 36.2252 88.1927 36.5068 87.7247 36.8792L87.5396 37.0634V44.6041H85.7626V37.3319C85.7626 36.6805 85.67 36.2133 85.4823 36.0159C85.202 35.7369 84.9217 35.6435 84.4537 35.6435C83.7053 35.6435 82.8631 36.1094 81.8358 37.0384V44.6712H80.2678L80.2664 37.0529ZM96.1679 29.9781L97.8509 29.6057C98.036 30.3506 98.1312 31.1889 98.1312 32.2114V35.6553C99.066 34.7249 100.096 34.2604 101.125 34.2604C102.341 34.2604 103.37 34.7262 104.024 35.6553C104.772 36.5857 105.148 37.8899 105.148 39.4717C105.148 41.147 104.774 42.4511 104.024 43.475C103.274 44.4988 102.247 44.9647 101.031 44.9647C100.478 44.975 99.9307 44.8469 99.4402 44.5922C98.8796 44.3133 98.5054 44.0343 98.2238 43.6618L97.9435 44.7804H96.353C96.5381 44.3146 96.6332 43.4644 96.6332 42.1748V32.3969C96.5407 31.2783 96.4482 30.4414 96.1652 29.9755L96.1679 29.9781ZM98.8782 36.2949C98.5979 36.4791 98.3177 36.7608 98.1299 37.0398V42.3722C98.7844 43.2105 99.6266 43.5829 100.642 43.5829C101.484 43.5829 102.139 43.3039 102.513 42.6525C102.981 41.9076 103.261 40.8838 103.261 39.3941C103.261 38.0781 103.076 37.1595 102.607 36.6015C102.233 36.0436 101.578 35.7632 100.642 35.7632C100.081 35.6711 99.4256 35.8554 98.865 36.3212L98.8782 36.2949ZM107.578 31.2941C107.578 30.9217 107.67 30.6427 107.952 30.3637C108.234 30.0847 108.513 29.9913 108.887 29.9913C109.261 29.9913 109.541 30.0834 109.822 30.3637C110.102 30.644 110.196 30.9217 110.196 31.2941C110.196 31.6666 110.103 31.9455 109.822 32.2245C109.54 32.5035 109.261 32.597 108.887 32.597C108.513 32.597 108.232 32.5048 107.952 32.2245C107.672 31.9442 107.578 31.6666 107.578 31.2941ZM107.967 44.6883V34.4499L109.65 34.1709V44.6909L107.967 44.6883ZM113.284 37.0529C113.284 36.3081 113.284 35.8422 113.192 35.658C113.192 35.379 113.007 35.1 112.818 34.6341L114.408 34.1683C114.664 34.6565 114.793 35.2008 114.782 35.7514C115.811 34.7276 116.933 34.1683 118.056 34.1683C118.617 34.1683 119.085 34.2604 119.553 34.5407C120.021 34.821 120.395 35.1921 120.581 35.6593C120.766 36.0317 120.862 36.4041 120.862 36.87V44.6896H119.271V37.7083C119.271 36.87 119.178 36.3133 118.897 36.033C118.751 35.8839 118.576 35.7658 118.383 35.6857C118.191 35.6056 117.983 35.5653 117.774 35.5672C117.4 35.5672 116.84 35.7514 116.278 36.033C115.758 36.2973 115.284 36.643 114.875 37.0569V44.6896H113.284V37.0529ZM124.602 36.6805L123.76 35.5619C125.161 34.6315 126.565 34.1669 128.062 34.1669C129.559 34.1669 130.495 34.7249 130.961 35.7501C131.146 36.1225 131.146 36.6805 131.146 37.5188V38.0768L131.054 41.4286V41.8945C131.054 42.4524 131.054 42.8249 131.146 43.1052C131.239 43.4776 131.521 43.7566 131.895 43.9435L131.053 45.0621C130.304 44.7831 129.836 44.3172 129.651 43.5723C128.716 44.5028 127.686 44.9673 126.658 44.9673C125.629 44.9673 124.787 44.6883 124.146 44.129C123.585 43.6632 123.304 42.9183 123.304 41.9879C123.279 41.455 123.396 40.9251 123.642 40.4514C123.888 39.9776 124.255 39.5766 124.706 39.2888C125.641 38.6374 127.044 38.3584 128.728 38.3584H129.477V37.6135C129.477 36.7752 129.384 36.2186 129.102 36.0304C128.925 35.8397 128.707 35.6906 128.465 35.5941C128.222 35.4976 127.962 35.456 127.701 35.4724C127.14 35.4724 126.485 35.6566 125.736 35.9383L124.612 36.6831L124.602 36.6805ZM129.56 42.1734L129.652 39.4757H128.81C127.314 39.4757 126.377 39.7546 125.817 40.3139C125.443 40.6864 125.256 41.2444 125.256 41.9892C125.256 43.1999 125.817 43.8513 127.033 43.8513C127.564 43.8211 128.077 43.6497 128.519 43.3551C128.961 43.0605 129.315 42.6533 129.545 42.1761L129.56 42.1734ZM136.48 34.4459H139.098L138.63 35.7619H136.479V42.3722C136.479 42.9301 136.571 43.3026 136.759 43.5829C136.944 43.7671 137.32 43.9553 137.788 43.9553C138.162 43.9553 138.536 43.8632 138.816 43.7711L139.001 44.7949C138.441 45.0739 137.877 45.1673 137.224 45.1673C135.634 45.1673 134.887 44.4225 134.887 42.8407V35.7659H133.484V34.4499H134.806V34.2656C134.806 34.0814 134.899 33.3352 134.991 32.1245V31.8442L136.674 31.4718C136.489 32.5904 136.489 33.6129 136.489 34.4512L136.48 34.4459ZM140.782 39.5651C140.782 37.8899 141.156 36.5857 141.999 35.6567C142.747 34.7262 143.869 34.1669 145.178 34.1669C146.675 34.1669 147.889 34.7249 148.732 35.9356C149.387 36.866 149.667 38.1702 149.667 39.752C149.667 41.6141 149.106 43.1039 148.076 44.0343C147.302 44.7114 146.302 45.0765 145.271 45.0581C143.869 45.0581 142.838 44.5922 141.997 43.5684C141.249 42.638 140.782 41.2417 140.782 39.5651ZM147.423 36.8674C146.955 36.0291 146.3 35.5514 145.272 35.5514C144.245 35.5514 143.589 35.9238 143.121 36.67C142.747 37.2279 142.653 38.1597 142.653 39.3678C142.653 40.9509 142.838 42.0655 143.308 42.7196C143.777 43.3736 144.431 43.7434 145.365 43.7434C146.489 43.7434 147.236 43.1854 147.61 42.1603C147.795 41.6023 147.89 40.8443 147.89 39.9257C147.89 38.5308 147.705 37.5043 147.422 36.8542L147.423 36.8674ZM152.752 36.8647C152.752 35.9343 152.659 35.1895 152.377 34.6302L153.968 34.1643C154.224 34.6525 154.352 35.1969 154.342 35.7475V35.9317C155.184 34.8131 156.119 34.2564 157.242 34.2564C157.427 34.2564 157.616 34.2564 157.802 34.3486L157.148 36.1172C156.963 36.0251 156.774 36.0251 156.68 36.0251C156.306 36.0251 155.837 36.1172 155.463 36.3976C155.089 36.6779 154.715 36.9555 154.529 37.328C154.405 37.6877 154.342 38.0652 154.342 38.4452V44.8673H152.752V36.8647Z" fill="white"/>
<path d="M31.578 39.5955L25.7939 28.8899H28.4644L31.8022 35.6225C31.8022 35.7331 31.9137 35.8436 32.0251 35.9541C32.1365 36.0647 32.1365 36.1752 32.248 36.395L32.3594 36.5055V36.6161C32.4708 36.8372 32.4708 36.9477 32.5823 37.1688C32.6937 37.2793 32.6937 37.5004 32.8052 37.6097C32.9166 37.278 33.1395 37.0569 33.2496 36.6161C33.361 36.2845 33.5839 35.9541 33.8068 35.6225L37.1445 28.8899H39.5922L33.8081 39.7074V46.5505H31.5833L31.578 39.5955Z" fill="#1C1C1C"/>
</svg>
