<svg width="171" height="75" viewBox="0 0 171 75" fill="none" xmlns="http://www.w3.org/2000/svg">
<path fill-rule="evenodd" clip-rule="evenodd" d="M86.9303 37.4582C86.9303 37.6484 87.0888 37.799 87.279 37.799H90.0851C90.3229 37.799 90.537 37.7435 90.7351 37.6405C90.9333 37.5295 91.1077 37.3789 91.2583 37.1887C91.4117 36.9882 91.5297 36.763 91.6071 36.5228C91.7824 35.9804 91.774 35.3954 91.5833 34.8582C91.4907 34.6174 91.3566 34.3947 91.187 34.2003C91.0327 34.0196 90.8441 33.8714 90.6321 33.7643C90.4304 33.6623 90.208 33.6081 89.9821 33.6058H87.2077C87.1716 33.6047 87.1357 33.6109 87.1021 33.6239C87.0685 33.637 87.0379 33.6567 87.012 33.6818C86.9861 33.707 86.9655 33.737 86.9515 33.7703C86.9375 33.8035 86.9303 33.8392 86.9303 33.8753V37.4582ZM84.4095 44.0771V31.6716C84.4095 31.521 84.5364 31.4021 84.687 31.4021H90.1486C90.7431 31.4021 91.29 31.521 91.7973 31.7747C92.7963 32.259 93.569 33.1112 93.9534 34.1527C94.2034 34.7754 94.3048 35.4477 94.2498 36.1164C94.1948 36.785 93.9847 37.4317 93.6363 38.0051C93.2898 38.5795 92.7903 39.0461 92.1937 39.3527C92.1599 39.3699 92.13 39.394 92.1062 39.4235C92.0823 39.453 92.065 39.4872 92.0553 39.5238C92.0455 39.5605 92.0437 39.5988 92.0498 39.6362C92.0558 39.6737 92.0698 39.7094 92.0906 39.7411L94.6351 43.9423C94.6606 43.9832 94.6747 44.0302 94.6759 44.0784C94.6771 44.1266 94.6653 44.1742 94.6419 44.2163C94.6184 44.2584 94.5841 44.2934 94.5424 44.3177C94.5008 44.342 94.4534 44.3547 94.4052 44.3545H92.3046C92.23 44.3556 92.1563 44.3372 92.0909 44.3011C92.0256 44.2649 91.9708 44.2123 91.9321 44.1484L89.554 40.2326C89.5123 40.1649 89.454 40.1091 89.3846 40.0702C89.3153 40.0314 89.2372 40.0109 89.1577 40.0106H87.1998C87.1283 40.0106 87.0597 40.039 87.0092 40.0896C86.9587 40.1401 86.9303 40.2086 86.9303 40.2801V44.085C86.9303 44.2277 86.8114 44.3545 86.6608 44.3545H84.679C84.643 44.3545 84.6073 44.3473 84.574 44.3333C84.5408 44.3192 84.5108 44.2987 84.4856 44.2728C84.4605 44.2469 84.4408 44.2163 84.4277 44.1826C84.4147 44.149 84.4085 44.1131 84.4095 44.0771ZM105.55 39.0832L104.084 34.9057C104.067 34.8609 104.036 34.8223 103.997 34.7951C103.957 34.7679 103.91 34.7533 103.862 34.7533C103.814 34.7533 103.767 34.7679 103.727 34.7951C103.688 34.8223 103.657 34.8609 103.64 34.9057L102.11 39.0911C102.099 39.1242 102.096 39.1594 102.101 39.194C102.106 39.2286 102.119 39.2615 102.139 39.2901C102.159 39.3187 102.185 39.3421 102.216 39.3585C102.247 39.3749 102.281 39.3838 102.316 39.3844H105.336C105.495 39.3844 105.598 39.2259 105.55 39.0832ZM102.99 31.4259H104.734C104.877 31.4259 105.011 31.521 105.059 31.6558L109.72 43.9027C109.74 43.9549 109.748 44.0113 109.742 44.0671C109.736 44.1229 109.716 44.1764 109.685 44.2231C109.654 44.2697 109.612 44.3082 109.563 44.3352C109.514 44.3623 109.459 44.377 109.403 44.3783H107.556C107.485 44.3777 107.415 44.3554 107.357 44.3143C107.299 44.2732 107.255 44.2153 107.231 44.1484L106.2 41.374C106.174 41.3073 106.128 41.2503 106.069 41.2106C106.009 41.1709 105.939 41.1504 105.867 41.1521H101.825C101.754 41.1527 101.684 41.175 101.626 41.2161C101.568 41.2572 101.524 41.3151 101.5 41.382L100.477 44.1563C100.452 44.2217 100.407 44.2779 100.349 44.3175C100.291 44.3571 100.222 44.3783 100.152 44.3783H98.3132C98.2564 44.3783 98.2005 44.3645 98.1503 44.338C98.1001 44.3115 98.0571 44.2731 98.0251 44.2263C97.9931 44.1794 97.973 44.1255 97.9665 44.0691C97.9601 44.0127 97.9675 43.9556 97.9882 43.9027L102.665 31.6558C102.689 31.5889 102.733 31.531 102.791 31.4899C102.85 31.4488 102.919 31.4265 102.99 31.4259ZM115.728 36.7844V44.0454C115.726 44.1344 115.689 44.2191 115.626 44.2813C115.562 44.3435 115.477 44.3783 115.388 44.3783H113.549C113.459 44.3783 113.374 44.3435 113.31 44.2813C113.247 44.2191 113.21 44.1344 113.208 44.0454V31.7588C113.208 31.5765 113.366 31.4259 113.549 31.4259H114.92C115.078 31.4259 115.221 31.5051 115.316 31.6161L121.499 39.4082C121.642 39.5826 121.919 39.4874 121.919 39.2655V31.7826C121.919 31.6003 122.07 31.4497 122.252 31.4497H124.091C124.281 31.4497 124.432 31.6003 124.432 31.7826V44.0454C124.43 44.1344 124.393 44.2191 124.329 44.2813C124.266 44.3435 124.18 44.3783 124.091 44.3783H122.617C122.545 44.3774 122.474 44.3606 122.41 44.3291C122.346 44.2976 122.289 44.2521 122.244 44.196L116.164 36.6259C116.132 36.5864 116.088 36.558 116.039 36.5444C115.99 36.5309 115.938 36.533 115.89 36.5504C115.842 36.5679 115.801 36.5997 115.772 36.6416C115.743 36.6836 115.728 36.7334 115.728 36.7844Z" fill="white"/>
<path fill-rule="evenodd" clip-rule="evenodd" d="M128.174 37.8144C128.174 37.0217 128.317 36.2369 128.602 35.468C128.884 34.7049 129.309 34.0026 129.855 33.3991C130.418 32.777 131.1 32.2731 131.86 31.9168C132.653 31.5443 133.549 31.3619 134.555 31.3619C135.752 31.3619 136.783 31.6156 137.655 32.1388C138.447 32.6144 139.058 33.2247 139.486 33.9699C139.519 34.0272 139.53 34.0951 139.515 34.1599C139.5 34.2247 139.462 34.2814 139.407 34.3186L137.908 35.3491C137.878 35.3688 137.844 35.382 137.808 35.3878C137.773 35.3937 137.736 35.3921 137.701 35.3832C137.666 35.3742 137.634 35.3581 137.605 35.3359C137.577 35.3137 137.553 35.2858 137.536 35.254C137.242 34.7211 136.798 34.2857 136.26 34.0016C135.984 33.8579 135.691 33.7513 135.388 33.6845C135.094 33.6178 134.793 33.5833 134.492 33.5814C133.945 33.5669 133.403 33.6847 132.912 33.9248C132.42 34.165 131.994 34.5204 131.67 34.9607C131.354 35.3771 131.115 35.8469 130.965 36.3479C130.809 36.8458 130.729 37.3641 130.727 37.8857C130.727 38.4564 130.822 39.0034 131.004 39.5345C131.176 40.0431 131.439 40.5159 131.781 40.9296C132.114 41.3259 132.518 41.6589 132.986 41.8967C133.454 42.1345 133.969 42.2613 134.524 42.2613C134.817 42.2613 135.118 42.2296 135.435 42.1503C136.084 42.0053 136.676 41.6748 137.14 41.1991C137.322 41.0089 137.48 40.7869 137.607 40.5412C137.624 40.5098 137.646 40.4822 137.674 40.4599C137.702 40.4376 137.733 40.4211 137.767 40.4115C137.802 40.4019 137.837 40.3993 137.872 40.4038C137.908 40.4084 137.941 40.4201 137.972 40.4381L139.573 41.3576C139.63 41.391 139.672 41.4446 139.692 41.5078C139.711 41.5711 139.705 41.6392 139.676 41.6985C139.478 42.0948 139.216 42.4515 138.899 42.7686C138.512 43.1401 138.075 43.455 137.599 43.704C137.113 43.963 136.597 44.1601 136.062 44.2906C135.535 44.421 134.995 44.4875 134.452 44.4887C133.572 44.4987 132.702 44.2975 131.916 43.9022C131.164 43.5258 130.492 43.0092 129.934 42.3802C129.379 41.7494 128.942 41.0246 128.642 40.24C128.336 39.4678 128.177 38.645 128.174 37.8144Z" fill="white"/>
<path fill-rule="evenodd" clip-rule="evenodd" d="M154.475 31.679V44.124C154.475 44.2667 154.364 44.3777 154.237 44.3777H152.224C152.159 44.3757 152.098 44.3492 152.052 44.3035C152.007 44.2579 151.98 44.1965 151.978 44.132V39.0984C151.978 39.0333 151.952 38.9708 151.906 38.9247C151.86 38.8786 151.798 38.8527 151.733 38.8527H146.35C146.285 38.8527 146.223 38.8786 146.176 38.9247C146.13 38.9708 146.104 39.0333 146.104 39.0984V44.132C146.104 44.2667 145.993 44.3777 145.851 44.3777H143.829C143.765 44.3757 143.704 44.3492 143.658 44.3035C143.612 44.2579 143.586 44.1965 143.584 44.132V31.679C143.584 31.5363 143.695 31.4253 143.829 31.4253H145.851C145.993 31.4253 146.104 31.5363 146.104 31.679V36.4113C146.104 36.5539 146.215 36.6649 146.35 36.6649H151.733C151.867 36.6649 151.978 36.5539 151.978 36.4113V31.679C151.978 31.5363 152.089 31.4253 152.224 31.4253H154.229C154.364 31.4253 154.475 31.5363 154.475 31.679Z" fill="white"/>
<path fill-rule="evenodd" clip-rule="evenodd" d="M77.5853 41.1911C77.506 41.3972 77.3871 41.5875 77.2444 41.7302C77.0965 41.8839 76.9184 42.0053 76.7213 42.0869C76.5159 42.1744 76.2944 42.2177 76.0713 42.2137H72.5914C72.522 42.2137 72.4555 42.1861 72.4064 42.1371C72.3574 42.088 72.3298 42.0215 72.3298 41.9521V39.0668C72.3298 38.9241 72.4487 38.8131 72.5914 38.8131H76.206C76.42 38.8131 76.6261 38.8607 76.8005 38.9479C76.9908 39.043 77.1414 39.1619 77.2761 39.3204C77.4909 39.5773 77.6335 39.8866 77.6892 40.2168C77.745 40.5469 77.7118 40.886 77.5932 41.1991M72.5755 33.5576H75.7304C76.1109 33.5576 76.4914 33.6845 76.7609 33.946C77.07 34.2393 77.2286 34.6595 77.2286 35.1826C77.2286 35.6899 77.07 36.0942 76.7767 36.3875C76.6345 36.5297 76.465 36.6416 76.2783 36.7165C76.0917 36.7915 75.8918 36.8278 75.6908 36.8235H72.5835C72.5204 36.8235 72.4599 36.7984 72.4153 36.7538C72.3707 36.7092 72.3457 36.6487 72.3457 36.5857V33.7954C72.3457 33.7324 72.3707 33.6719 72.4153 33.6273C72.4599 33.5827 72.5204 33.5576 72.5835 33.5576M79.6145 38.8924C79.1922 38.3476 78.6102 37.9485 77.9499 37.7509C77.9394 37.7509 77.9293 37.7467 77.9219 37.7393C77.9145 37.7319 77.9103 37.7218 77.9103 37.7113C77.9103 37.7008 77.9145 37.6907 77.9219 37.6832C77.9293 37.6758 77.9394 37.6716 77.9499 37.6716C78.494 37.4196 78.9457 37.0039 79.242 36.4826C79.4981 36.0356 79.6542 35.5383 79.6993 35.0251C79.7445 34.5119 79.6777 33.9949 79.5036 33.5101C79.3687 33.1265 79.1674 32.7697 78.9091 32.4558C78.6533 32.1433 78.3381 31.8846 77.9816 31.6948C77.6046 31.5 77.1852 31.402 76.7609 31.4095H70.0469C69.9838 31.4095 69.9233 31.4345 69.8787 31.4791C69.8341 31.5237 69.8091 31.5842 69.8091 31.6473V44.0924C69.8091 44.243 69.928 44.3619 70.0707 44.3619H76.0713C76.6154 44.3639 77.1571 44.2892 77.6804 44.1399C78.1579 44.0079 78.6087 43.7933 79.0121 43.5058C79.4005 43.2204 79.7017 42.8716 79.9158 42.4594C80.1377 42.0472 80.2487 41.5637 80.2487 41.0168C80.2487 40.1686 80.0267 39.4631 79.5987 38.8924" fill="white"/>
<path fill-rule="evenodd" clip-rule="evenodd" d="M45.5606 37.2675L39.56 43.2602C39.4015 43.4187 39.124 43.2998 39.124 43.0699V41.3894C39.124 41.1199 39.235 40.8504 39.4253 40.6602L47.1143 32.9553C47.1586 32.9111 47.1938 32.8586 47.2178 32.8008C47.2418 32.743 47.2542 32.681 47.2542 32.6184C47.2542 32.5558 47.2418 32.4938 47.2178 32.436C47.1938 32.3782 47.1586 32.3257 47.1143 32.2815L46.2265 31.3699C46.183 31.3258 46.1311 31.2908 46.074 31.2669C46.0168 31.243 45.9555 31.2307 45.8935 31.2307C45.8316 31.2307 45.7703 31.243 45.7131 31.2669C45.656 31.2908 45.6041 31.3258 45.5606 31.3699L39.6551 37.2675C39.61 37.3088 39.5539 37.3361 39.4936 37.3463C39.4332 37.3564 39.3713 37.3489 39.3151 37.3246C39.259 37.3003 39.2111 37.2602 39.1772 37.2093C39.1433 37.1584 39.1248 37.0988 39.124 37.0376V24.9334C39.124 24.8072 39.0739 24.6863 38.9847 24.5971C38.8955 24.5079 38.7746 24.4578 38.6484 24.4578H37.3801C37.2568 24.4619 37.1398 24.5138 37.054 24.6025C36.9682 24.6913 36.9203 24.8099 36.9204 24.9334V30.6882C36.9204 30.926 36.6509 31.0291 36.4923 30.8706L33.1076 27.4462C33.0647 27.4011 33.013 27.3652 32.9558 27.3407C32.8985 27.3161 32.8369 27.3035 32.7747 27.3035C32.7124 27.3035 32.6508 27.3161 32.5936 27.3407C32.5363 27.3652 32.4847 27.4011 32.4417 27.4462L31.546 28.3578C31.5017 28.4019 31.4665 28.4544 31.4425 28.5123C31.4185 28.5701 31.4061 28.632 31.4061 28.6946C31.4061 28.7572 31.4185 28.8192 31.4425 28.877C31.4665 28.9348 31.5017 28.9873 31.546 29.0315L36.4844 34.0413C36.7539 34.3187 36.9125 34.6992 36.9125 35.0876V39.8754C36.9125 40.1291 36.5954 40.2638 36.421 40.0815L28.6131 32.1547C28.5701 32.1096 28.5185 32.0737 28.4613 32.0492C28.404 32.0247 28.3424 32.012 28.2802 32.012C28.2179 32.012 28.1563 32.0247 28.0991 32.0492C28.0418 32.0737 27.9902 32.1096 27.9472 32.1547L27.0515 33.0663C27.0072 33.1105 26.972 33.163 26.948 33.2208C26.924 33.2786 26.9116 33.3406 26.9116 33.4032C26.9116 33.4658 26.924 33.5277 26.948 33.5856C26.972 33.6434 27.0072 33.6959 27.0515 33.7401L36.4923 43.3236C36.7619 43.5931 36.9125 43.9577 36.9125 44.3382V50.4894C36.9125 50.751 37.1186 50.965 37.3801 50.965H38.6564C38.7811 50.9629 38.9001 50.9119 38.9876 50.8229C39.075 50.734 39.1241 50.6142 39.124 50.4894V47.4059C39.124 47.0571 39.2588 46.7242 39.5045 46.4705L47.1143 38.8529C47.1586 38.8087 47.1938 38.7562 47.2178 38.6984C47.2418 38.6405 47.2542 38.5786 47.2542 38.516C47.2542 38.4534 47.2418 38.3914 47.2178 38.3336C47.1938 38.2758 47.1586 38.2233 47.1143 38.1791L46.2265 37.2675C46.183 37.2234 46.1311 37.1884 46.074 37.1645C46.0168 37.1406 45.9555 37.1283 45.8935 37.1283C45.8316 37.1283 45.7703 37.1406 45.7131 37.1645C45.656 37.1884 45.6041 37.2234 45.5606 37.2675Z" fill="white"/>
<path fill-rule="evenodd" clip-rule="evenodd" d="M37.8717 18.061C27.3766 18.061 18.8394 26.725 18.8394 37.3707C18.8394 48.0243 27.3845 56.6962 37.8796 56.6962C48.3747 56.6962 56.9278 48.0243 56.9278 37.3707C56.9278 26.717 48.3747 18.061 37.8717 18.061ZM37.8717 58.7731C26.251 58.7651 16.8022 49.1658 16.8022 37.3707C16.8022 25.5914 26.2589 16 37.8717 16C49.4924 16 58.9491 25.5914 58.9491 37.3786C58.9491 49.1737 49.4924 58.7651 37.8717 58.7651" fill="white"/>
</svg>
