<svg width="195" height="53" viewBox="0 0 195 53" fill="none" xmlns="http://www.w3.org/2000/svg">
<g clip-path="url(#clip0_6041_423)">
<path d="M95.0129 27.2687C96.8876 27.0736 98.2305 26.1898 98.9881 24.6212C99.6079 23.3433 100.564 21.2735 100.572 21.2505C101.521 19.2916 101.23 18.0941 100.817 17.4246C100.197 16.4337 98.9843 16.0817 98.0622 16.0817H88.6695L78.9478 36.7418H83.8297L87.5523 28.627H90.1693C90.3877 28.6401 90.6004 28.7014 90.7923 28.8066C90.9841 28.9118 91.1503 29.0582 91.2788 29.2353C91.5925 29.7556 91.5083 30.5514 91.0148 31.5997C89.8364 34.1287 88.899 36.7494 88.899 36.7494H93.8498C93.9869 36.0664 94.188 35.3977 94.4505 34.7523C94.8331 33.8494 95.9809 30.9952 95.9809 30.9684C96.9259 28.6537 95.7551 27.7279 95.0129 27.2687ZM94.4964 23.8598C94.0832 24.7321 93.4481 25.1759 92.6026 25.1759H89.1975L91.78 19.5518H95.5065C95.6052 19.5564 95.7017 19.5828 95.789 19.6291C95.8763 19.6754 95.9523 19.7405 96.0115 19.8196C96.1607 20.0645 96.1071 20.4739 95.8585 21.0057L95.0053 22.7962L94.4964 23.8598Z" fill="white"/>
<path d="M42.904 27.2672C44.7788 27.0682 46.114 26.1844 46.8792 24.6158C47.499 23.3379 48.4555 21.2681 48.467 21.2451C49.4158 19.2862 49.125 18.0887 48.7118 17.4192C48.092 16.4435 46.8792 16.0916 45.9533 16.0916H36.5491L26.8274 36.7517H31.7208L35.4434 28.6368H38.0642C38.2826 28.65 38.4954 28.7113 38.6872 28.8165C38.8791 28.9217 39.0452 29.0681 39.1737 29.2452C39.4913 29.7655 39.4033 30.5613 38.9097 31.6096C37.7314 34.1386 36.794 36.7593 36.794 36.7593H41.7448C41.88 36.0762 42.0799 35.4075 42.3416 34.7622C42.7242 33.8593 43.872 31.0051 43.872 30.9783C44.8208 28.6521 43.6463 27.7263 42.904 27.2672ZM42.3875 23.8544C41.9743 24.7305 41.3392 25.1552 40.4975 25.1552H37.0924L39.7476 19.5311H43.3976C43.4963 19.5357 43.5928 19.5621 43.6801 19.6084C43.7674 19.6547 43.8434 19.7198 43.9026 19.7989C44.0518 20.0438 43.9983 20.4531 43.7496 20.9849L42.8964 22.7755L42.3875 23.8544Z" fill="white"/>
<path d="M65.829 21.2328C67.5392 17.5675 65.6032 15.976 63.1393 15.976H57.2091C54.7146 15.976 52.9546 17.1543 51.8222 19.5762C51.2138 20.877 50.2 23.0195 49.0254 25.4643L46.5462 30.6906C44.0555 35.9321 47.7819 36.8121 49.6069 36.8121H53.3525C57.1058 36.8503 58.9537 35.7906 60.4038 32.768C61.3756 30.7479 62.7223 27.8632 64.1532 24.8062L65.829 21.2328ZM60.9585 20.6513L55.9848 31.2453C55.2923 32.7068 54.837 32.9555 53.7619 32.9555H51.6117C51.2291 32.9555 50.4639 32.8522 51.0378 31.6011C51.8719 29.8029 55.3688 22.2658 56.0843 20.7507C56.5702 19.7177 57.0752 19.5111 57.7332 19.5111H60.4114C60.9203 19.4882 61.3756 19.7675 60.9585 20.6513Z" fill="white"/>
<path d="M73.9625 25.2833L72.3403 28.7266H74.9114L73.4652 31.8524C73.0443 32.7592 72.7574 32.9428 71.7664 32.9428H69.2107C68.4455 32.9428 68.1777 32.5602 68.6368 31.5884C69.2184 30.3565 73.8095 20.7687 73.8095 20.7687C74.3298 19.6783 74.6397 19.5137 75.4432 19.5137H78.0831C78.722 19.5137 79.0664 19.8083 78.6378 20.6615C78.5422 20.849 77.4901 23.1484 77.4901 23.1484L82.1462 23.1828L83.206 20.9064C84.7555 17.5778 83.3706 16.0207 80.1644 15.9747H75.1065C73.9017 15.9433 72.7145 16.2681 71.6936 16.9086C70.6727 17.549 69.8635 18.4766 69.3676 19.575C68.4455 21.5377 64.0954 30.6893 64.0954 30.6893C62.5038 34.0371 63.4259 36.8109 67.7798 36.8109H71.667C74.7736 36.8415 76.3002 36.3556 77.7196 33.2489L81.3428 25.3101L73.9625 25.2833Z" fill="white"/>
<path d="M144.147 16.0288L134.413 36.7195H139.429L149.224 16.0288H144.147Z" fill="white"/>
<path d="M150.298 34.2556L156.045 16.0288H150.784L145.964 36.7157H152.751L166.934 16.0288H161.658L150.298 34.2556Z" fill="white"/>
<path d="M122.805 29.5421L122.384 21.8902C122.335 20.9681 122.56 19.717 124.248 19.717H127.637L129.378 16.0288H123.601C119.01 16.0288 117.48 18.8256 117.644 22.1121C117.751 24.1207 118.027 30.6554 118.027 30.6554C118.096 32.2317 117.491 32.951 116.018 32.951H112.154L110.421 36.7042H116.58C120.667 36.7272 123.073 34.0605 122.805 29.5421Z" fill="white"/>
<path d="M133.935 21.8935C133.885 20.9714 134.111 19.7203 135.798 19.7203H139.188L140.928 16.0321H135.151C131.356 16.0321 128.976 18.1058 129.194 22.1154C129.305 24.124 129.577 30.6587 129.577 30.6587C129.65 32.235 129.045 32.9543 127.568 32.9543H123.803L122.07 36.7075H128.131C132.622 36.7075 134.589 33.4937 134.352 29.5224L133.935 21.8935Z" fill="white"/>
<path d="M105.581 27.4703H111.859L113.47 24.027H107.169L109.173 19.7343H115.678L117.384 16.0652H106.051L96.3833 36.7253H108.626L110.39 32.9797H102.964L105.581 27.4703Z" fill="white"/>
<path d="M158.933 36.7215H171.176L172.955 32.9797H165.514L168.131 27.4703H174.409L176.02 24.027H169.718L171.723 19.7343H178.227L179.93 16.0652H168.601L158.933 36.7215Z" fill="white"/>
<path d="M29.5474 25.9702C29.9568 25.1246 30.7679 23.3723 31.69 21.3369C33.3084 17.7558 31.3074 16.0992 29.184 16.0916H19.8946L10.2532 36.7823H15.2652L18.632 29.5359C18.632 29.5359 21.4632 29.5359 23.5139 29.5359C26.6397 29.5589 28.2734 28.5986 29.5474 25.9702ZM26.9611 21.1724C26.0582 23.0854 25.3695 24.5163 25.293 24.6732C24.8874 25.5378 24.3059 25.9204 23.4297 25.9204H20.2848L23.2576 19.4813H26.4102C27.1027 19.4852 27.5962 19.8333 26.9611 21.1724Z" fill="white"/>
<path d="M183.982 17.4732C183.986 17.3931 183.968 17.3135 183.931 17.2424C183.894 17.1712 183.839 17.111 183.772 17.0676C183.63 16.9957 183.471 16.964 183.313 16.9758H182.494V18.8582H182.723V17.9897H183.144L183.684 18.8582H183.955L183.389 17.9897C183.722 17.982 183.982 17.8443 183.982 17.4732ZM183.083 17.8099H182.731V17.125H183.271C183.504 17.125 183.76 17.1594 183.76 17.4502C183.749 17.8519 183.339 17.8099 183.083 17.8099Z" fill="white"/>
<path d="M183.121 16.2302C182.788 16.2295 182.462 16.3277 182.184 16.5123C181.907 16.697 181.691 16.9599 181.563 17.2677C181.435 17.5754 181.401 17.9142 181.466 18.2411C181.531 18.568 181.691 18.8683 181.927 19.104C182.163 19.3397 182.463 19.5001 182.79 19.5649C183.117 19.6297 183.455 19.5961 183.763 19.4682C184.071 19.3403 184.334 19.1239 184.519 18.8465C184.703 18.5691 184.801 18.2431 184.801 17.9098C184.8 17.4647 184.622 17.0381 184.308 16.7233C183.993 16.4085 183.566 16.2312 183.121 16.2302ZM183.121 19.3943C182.829 19.392 182.544 19.3033 182.302 19.1392C182.06 18.9751 181.872 18.7431 181.761 18.4724C181.651 18.2016 181.623 17.9043 181.682 17.6178C181.74 17.3314 181.882 17.0686 182.09 16.8627C182.297 16.6568 182.561 16.5169 182.848 16.4607C183.135 16.4045 183.432 16.4344 183.702 16.5468C183.972 16.6592 184.202 16.849 184.364 17.0923C184.527 17.3355 184.613 17.6213 184.613 17.9136C184.614 18.1094 184.575 18.3033 184.501 18.4841C184.426 18.6649 184.316 18.8291 184.177 18.9672C184.038 19.1052 183.873 19.2144 183.692 19.2884C183.511 19.3623 183.317 19.3996 183.121 19.3981V19.3943Z" fill="white"/>
</g>
<defs>
<clipPath id="clip0_6041_423">
<rect width="174.933" height="21.225" fill="white" transform="translate(10.0598 15.774)"/>
</clipPath>
</defs>
</svg>
