<svg width="85" height="53" viewBox="0 0 85 53" fill="none" xmlns="http://www.w3.org/2000/svg">
<g clip-path="url(#clip0_6041_440)">
<path d="M9.84058 9.61313C22.9098 9.59632 35.9789 9.61033 49.0474 9.60613C56.4508 9.60613 63.8534 9.60543 71.2568 9.60613C71.2568 20.6772 71.2568 31.7482 71.2568 42.8193C50.7849 42.8179 30.3138 42.8221 9.84268 42.8171C9.84338 31.7489 9.84618 20.6807 9.84058 9.61313ZM12.4055 12.1676C12.4055 21.5263 12.4055 30.8851 12.4055 40.2438C31.1643 40.2445 49.9225 40.2445 68.6813 40.2438C68.682 30.8851 68.682 21.5263 68.6813 12.1683C49.9232 12.1669 31.1643 12.1676 12.4055 12.1676Z" fill="white"/>
<path d="M52.9035 16.6141C54.6474 16.3724 56.4647 16.551 58.0958 17.232C59.6595 17.8815 60.9346 19.0508 62.0542 20.2944C61.3872 20.9502 60.702 21.587 60.033 22.2407C59.249 21.1975 58.2632 20.2734 57.0631 19.7325C55.8104 19.1531 54.3748 19.0529 53.0276 19.3044C50.6203 19.7374 48.5605 21.6122 47.8199 23.9306C47.4458 25.1377 47.3911 26.4373 47.6146 27.6781C47.8465 28.9133 48.4484 30.0749 49.3283 30.9724C50.2763 31.9483 51.4638 32.7288 52.7964 33.0525C53.9846 33.3384 55.2702 33.2753 56.401 32.7954C57.3307 32.4016 58.1497 31.7613 58.7838 30.9773C59.3555 30.2634 59.7114 29.3841 59.8067 28.4747C58.2576 28.4656 56.7079 28.4782 55.1588 28.4684C55.1616 27.5821 55.1588 26.6959 55.1602 25.8096C57.735 25.8082 60.309 25.8103 62.8837 25.8089C62.8928 27.138 62.8347 28.4831 62.4928 29.7743C62.1656 31.0719 61.4426 32.2454 60.5269 33.2115C59.6918 34.0929 58.6766 34.8124 57.5465 35.2629C56.1656 35.8213 54.6453 35.9712 53.1698 35.8409C51.6586 35.7085 50.1838 35.1845 48.9339 34.3241C46.9764 32.974 45.4498 30.9374 44.9061 28.6043C44.5165 26.9285 44.5453 25.1531 45 23.4934C45.6193 21.25 47.1536 19.3212 49.0768 18.0412C50.2202 17.2797 51.5437 16.7983 52.9035 16.6141Z" fill="white"/>
<path d="M16.5273 35.5338C19.4209 29.3145 22.3123 23.0945 25.2121 16.8787C25.575 16.8815 25.9379 16.8808 26.3009 16.8787C29.0977 23.0952 31.8861 29.3152 34.6788 35.5338C33.6397 35.5275 32.6 35.5471 31.561 35.524C30.9291 34.0149 30.2656 32.5191 29.6217 31.0149C26.9671 31.0149 24.3132 31.0156 21.6593 31.0149C20.9685 32.517 20.2735 34.017 19.5932 35.5233C18.5717 35.5471 17.5495 35.5275 16.5273 35.5338ZM25.7018 22.0737C24.7546 24.1706 23.7843 26.2563 22.8405 28.354C24.5255 28.3505 26.2098 28.354 27.8947 28.3526C28.086 28.3491 28.2787 28.3659 28.4685 28.3371C27.5535 26.283 26.6701 24.2133 25.7607 22.1564C25.746 22.136 25.7165 22.0947 25.7018 22.0737Z" fill="white"/>
<path d="M37.5911 35.531C37.5953 29.3138 37.589 23.0959 37.5946 16.8787C38.5341 16.8808 39.4736 16.878 40.4131 16.8801C40.4124 23.098 40.4124 29.3152 40.4131 35.5324C39.4722 35.5324 38.532 35.5352 37.5911 35.531Z" fill="white"/>
<path d="M73.8128 40.2037C74.2731 40.0713 74.7986 40.2087 75.1314 40.5548C75.6225 41.0529 75.6029 41.9672 75.0718 42.4303C74.6501 42.8366 73.9481 42.8815 73.4597 42.5697C73.0716 42.3315 72.8355 41.8719 72.8656 41.4172C72.8579 40.8581 73.2776 40.3432 73.8128 40.2037ZM73.8766 40.4097C73.2524 40.573 72.9378 41.3457 73.2047 41.9174C73.3967 42.4044 73.9789 42.6853 74.4791 42.5235C75.1083 42.3476 75.4172 41.5517 75.13 40.9793C74.9282 40.512 74.36 40.2549 73.8766 40.4097Z" fill="white"/>
<path d="M73.6558 40.7016C73.9661 40.7226 74.294 40.6476 74.5925 40.7555C74.9484 40.9314 74.8272 41.5591 74.4145 41.5696C74.5581 41.7868 74.7011 42.0054 74.8398 42.2275C74.7676 42.2254 74.6247 42.2219 74.5532 42.2205C74.4285 42.0236 74.308 41.8247 74.1791 41.6313C74.1287 41.5381 74.0019 41.5907 73.9206 41.5717C73.9185 41.7896 73.9178 42.0068 73.9192 42.2254C73.8302 42.224 73.7426 42.2233 73.6558 42.224C73.6565 41.7161 73.6558 41.2088 73.6558 40.7016ZM73.9192 40.9118C73.9185 41.0631 73.9185 41.2137 73.9192 41.3658C74.0817 41.3616 74.2492 41.3854 74.4089 41.3412C74.5897 41.2901 74.5932 40.9839 74.4082 40.9349C74.2492 40.8901 74.0817 40.9167 73.9192 40.9118Z" fill="white"/>
</g>
<defs>
<clipPath id="clip0_6041_440">
<rect width="65.9274" height="33.86" fill="white" transform="translate(9.67407 9.45654)"/>
</clipPath>
</defs>
</svg>
